<?xml version="1.0" encoding="iso-8859-1"?>
<!-- Uploaded to: SVG Repo, www.svgrepo.com, Generator: SVG Repo Mixer Tools -->
<svg version="1.1" id="Layer_1" xmlns="http://www.w3.org/2000/svg" xmlns:xlink="http://www.w3.org/1999/xlink" 
	 viewBox="0 0 512 512" xml:space="preserve">
<g>
	<polygon style="fill:#79CAE8;" points="261.626,276.605 261.626,371.679 75.217,371.679 75.217,402.803 292.751,402.803 
		292.751,276.605 	"/>
	<rect x="427.96" y="116.457" style="fill:#79CAE8;" width="72.624" height="80.923"/>
</g>
<g>
	<rect x="474.19" y="116.457" style="fill:#4B92B9;" width="26.383" height="80.923"/>
	<polygon style="fill:#4B92B9;" points="318.688,234.961 427.955,234.961 427.955,147.584 126.422,147.584 126.422,234.961 
		235.689,234.961 	"/>
</g>
<path style="fill:#CAF9F4;" d="M500.132,52.136H98.628c-11.46,0-20.75,9.29-20.75,20.75v123.46H386.01l21.201-48.762h51.423
	L500.132,52.136z"/>
<g>
	<rect x="143.753" y="87.926" style="fill:#4B92B9;" width="31.124" height="72.624"/>
	<rect x="206.002" y="87.926" style="fill:#4B92B9;" width="31.124" height="72.624"/>
</g>
<circle style="fill:#CAF9F4;" cx="277.194" cy="235.103" r="41.499"/>
<g>
	<circle style="fill:#4B92B9;" cx="277.194" cy="235.103" r="15.562"/>
	<path style="fill:#4B92B9;" d="M28.531,459.865L28.531,459.865c-11.46,0-20.75-9.29-20.75-20.75V335.367
		c0-11.46,9.29-20.75,20.75-20.75l0,0c11.46,0,20.75,9.29,20.75,20.75v103.748C49.28,450.574,39.991,459.865,28.531,459.865z"/>
	<polygon style="fill:#4B92B9;" points="75.217,418.365 49.28,428.74 49.28,345.742 75.217,356.117 	"/>
</g>
<circle style="fill:#CAF9F4;" cx="277.194" cy="387.239" r="41.499"/>
<circle style="fill:#4B92B9;" cx="277.194" cy="387.239" r="15.562"/>
<path d="M512,44.355H98.628c-15.731,0-28.531,12.799-28.531,28.531v131.241h48.544v38.615h109.862
	c2.417,15.47,12.056,28.577,25.348,35.756v65.351c-8.48,4.579-15.472,11.571-20.051,20.05H82.998v-13.051l-25.937-10.375v-5.106
	c0-15.731-12.798-28.531-28.531-28.531S0,319.635,0,335.366v103.748c0,15.731,12.798,28.531,28.531,28.531
	s28.531-12.799,28.531-28.531v-5.106l25.937-10.375v-13.047h150.803c8.335,15.428,24.657,25.935,43.387,25.935
	c27.173,0,49.28-22.108,49.28-49.28c0-18.731-10.506-35.051-25.932-43.386v-65.361c13.288-7.18,22.921-20.285,25.337-35.75h109.862
	v-37.577h72.624v-96.486h-24.326L512,44.355z M28.531,452.082c-7.151,0-12.968-5.817-12.968-12.969V335.366
	c0-7.151,5.817-12.968,12.968-12.968s12.968,5.817,12.968,12.968v103.748C41.499,446.265,35.682,452.082,28.531,452.082z
	 M67.436,413.096l-10.375,4.15v-60.012l10.375,4.15V413.096z M82.998,395.023v-15.562h145.53c-0.404,2.535-0.619,5.131-0.619,7.779
	c0,2.649,0.217,5.248,0.62,7.783H82.998z M310.906,387.24c0,18.593-15.126,33.718-33.718,33.718s-33.718-15.125-33.718-33.718
	s15.126-33.718,33.718-33.718S310.906,368.647,310.906,387.24z M284.975,338.581c-2.538-0.405-5.137-0.621-7.786-0.621
	c-2.646,0-5.241,0.216-7.776,0.619v-54.812c2.535,0.404,5.13,0.619,7.776,0.619c2.65,0,5.249-0.217,7.786-0.621V338.581z
	 M277.188,268.824c-18.592,0-33.718-15.125-33.718-33.718s15.126-33.718,33.718-33.718s33.718,15.125,33.718,33.718
	S295.781,268.824,277.188,268.824z M325.822,227.18c-3.803-23.417-24.16-41.354-48.634-41.354s-44.83,17.937-48.634,41.354h-94.351
	v-23.053h94.317v-15.562H85.659V72.886c0-7.151,5.817-12.968,12.968-12.968h389.637l-34.734,79.886h-51.429l-21.196,48.762h-55.052
	v15.562h65.255l21.196-48.762h7.866v71.814H325.822z M435.736,155.366h27.999l2.679-6.162v40.398h-30.678V155.366z M492.797,189.602
	h-10.821v-65.361h10.821V189.602z"/>
<path d="M135.977,168.334h46.687V80.148h-46.687V168.334z M151.539,95.711h15.562v57.061h-15.562V95.711z"/>
<path d="M198.226,168.334h46.687V80.148h-46.687V168.334z M213.788,95.711h15.562v57.061h-15.562V95.711z"/>
<path d="M277.188,211.763c-12.872,0-23.343,10.472-23.343,23.343s10.471,23.343,23.343,23.343s23.343-10.472,23.343-23.343
	C300.532,222.234,290.06,211.763,277.188,211.763z M277.188,242.887c-4.291,0-7.781-3.49-7.781-7.781s3.49-7.781,7.781-7.781
	c4.291,0,7.781,3.49,7.781,7.781C284.97,239.396,281.479,242.887,277.188,242.887z"/>
<path d="M253.845,387.24c0,12.871,10.471,23.343,23.343,23.343c12.872,0,23.343-10.472,23.343-23.343s-10.471-23.343-23.343-23.343
	C264.317,363.897,253.845,374.369,253.845,387.24z M284.97,387.24c0,4.291-3.49,7.781-7.781,7.781c-4.291,0-7.781-3.49-7.781-7.781
	c0-4.291,3.49-7.781,7.781-7.781C281.479,379.459,284.97,382.95,284.97,387.24z"/>
</svg>